<svg width="155" height="155" viewBox="0 0 155 155" fill="none" xmlns="http://www.w3.org/2000/svg">
<path d="M73.5662 3.9614C74.3019 -0.505128 80.7241 -0.505111 81.4598 3.96142L90.8372 60.8921C91.1159 62.5841 92.442 63.9102 94.1339 64.1888L151.065 73.5662C155.531 74.3019 155.531 80.7242 151.065 81.4599L94.1339 90.8372C92.442 91.1159 91.1159 92.442 90.8372 94.1339L81.4598 151.065C80.7241 155.531 74.3019 155.531 73.5662 151.065L64.1888 94.1339C63.9101 92.442 62.584 91.1159 60.8921 90.8372L3.96137 81.4598C-0.505162 80.7241 -0.505145 74.3019 3.96138 73.5662L60.8921 64.1888C62.584 63.9101 63.9101 62.5841 64.1888 60.8921L73.5662 3.9614Z" fill="white"/>
</svg>
