<svg width="67" height="66" viewBox="0 0 67 66" fill="none" xmlns="http://www.w3.org/2000/svg">
<path d="M31.483 2.06205C31.9037 -0.0940018 34.9884 -0.0940084 35.409 2.06205L38.8266 19.58C39.0825 20.892 40.5287 21.5884 41.7141 20.9705L57.5409 12.7202C59.4889 11.7048 61.4122 14.1165 59.9888 15.7897L48.4235 29.3839C47.5573 30.402 47.9145 31.9669 49.1367 32.5084L65.4549 39.7384C67.4633 40.6282 66.7769 43.6356 64.5813 43.5659L46.7421 42.9997C45.406 42.9573 44.4052 44.2122 44.7439 45.5054L49.2655 62.7713C49.822 64.8963 47.0428 66.2348 45.7283 64.4747L35.0485 50.1744C34.2486 49.1034 32.6435 49.1034 31.8436 50.1744L21.1637 64.4747C19.8493 66.2347 17.07 64.8963 17.6266 62.7713L22.1482 45.5054C22.4868 44.2122 21.486 42.9573 20.15 42.9997L2.31079 43.5659C0.115196 43.6356 -0.57123 40.6282 1.43717 39.7384L17.7554 32.5084C18.9776 31.9669 19.3347 30.402 18.4686 29.3839L6.90331 15.7897C5.47989 14.1165 7.40319 11.7048 9.35112 12.7202L25.178 20.9705C26.3633 21.5884 27.8095 20.892 28.0655 19.58L31.483 2.06205Z" fill="white" fill-opacity="0.8"/>
</svg>
